<svg width="81" height="85" viewBox="0 0 81 85" fill="none" xmlns="http://www.w3.org/2000/svg">
<ellipse cx="40.5" cy="41" rx="10.5" ry="10" fill="#a66a26"/>
<path d="M80.5 41.5C80.5 64.1552 62.58 82.5 40.5 82.5C18.42 82.5 0.5 64.1552 0.5 41.5C0.5 18.8448 18.42 0.5 40.5 0.5C62.58 0.5 80.5 18.8448 80.5 41.5Z" stroke="#a66a26"/>
<path d="M71.5 41C71.5 57.8372 57.6284 71.5 40.5 71.5C23.3716 71.5 9.5 57.8372 9.5 41C9.5 24.1628 23.3716 10.5 40.5 10.5C57.6284 10.5 71.5 24.1628 71.5 41Z" stroke="#a66a26"/>
<circle cx="41" cy="41" r="20.5" stroke="#a66a26"/>
<circle cx="40.5" cy="10.5" r="5.5" fill="#a66a26"/>
<circle cx="61.5" cy="41.5" r="5.5" fill="#a66a26"/>
<circle cx="41.5" cy="82.5" r="2.5" fill="#a66a26"/>
<circle cx="9.5" cy="41.5" r="2.5" fill="#a66a26"/>
</svg>
